<svg xmlns="http://www.w3.org/2000/svg" version="1.1" xmlns:xlink="http://www.w3.org/1999/xlink" width="64" height="64"><svg width="64" height="64" viewBox="0 0 64 64" fill="none" xmlns="http://www.w3.org/2000/svg">
<rect width="64" height="64" rx="8" fill="#F7EAE4"></rect>
<path d="M39.4988 7C42.6045 7 45.1219 11.7245 45.1219 15.7269C45.1219 19.7293 42.6045 22.9748 39.4988 22.9748C36.3932 22.9748 33.8758 19.7299 33.8758 15.7269C33.8758 11.7239 36.3932 7 39.4988 7Z" fill="#C97D60"></path>
<path d="M23.5216 7C26.6273 7 29.1447 11.7245 29.1447 15.7269C29.1447 19.7293 26.6273 22.9748 23.5216 22.9748C20.416 22.9748 17.8986 19.7299 17.8986 15.7269C17.8986 11.7239 20.416 7 23.5216 7Z" fill="#C97D60"></path>
<path d="M6.68131 28.1104C5.36258 24.8085 5.94001 20.0588 8.57266 19.0072C11.2053 17.9556 14.8962 21 16.2149 24.3019C17.5336 27.6038 16.4688 31.1333 13.8362 32.1849C11.2035 33.2365 8.00004 31.4124 6.68131 28.1104Z" fill="#C97D60"></path>
<path d="M56.3392 28.1104C55.0204 31.4124 51.817 33.2365 49.1843 32.1849C46.5517 31.1333 45.4862 27.6038 46.8056 24.3019C48.1243 21 51.8152 17.9556 54.4478 19.0072C57.0805 20.0588 57.6579 24.8085 56.3392 28.1104Z" fill="#C97D60"></path>
<path d="M51.6279 46.3493C51.0246 43.6453 49.5871 41.2065 47.997 38.946C44.2713 33.6507 38.3038 28.3037 31.5102 28.3037C24.7449 28.3037 18.7503 33.6495 15.0234 38.946C13.4328 41.2065 11.9952 43.6447 11.3926 46.3493C10.7894 49.054 11.1195 52.078 12.7948 54.2749C14.47 56.4718 17.6435 57.5684 20.1249 56.3793C21.6003 55.6723 22.7942 54.2467 24.422 54.1092C25.916 53.9832 27.2365 54.9898 28.4832 55.8313C29.3842 56.4394 30.47 56.9928 31.5102 57C32.5505 56.9928 33.6363 56.4394 34.5372 55.8313C35.7833 54.9898 37.1039 53.9838 38.5985 54.1092C40.2263 54.2461 41.4202 55.6723 42.8956 56.3793C45.377 57.5684 48.5505 56.4718 50.2257 54.2749C51.901 52.078 52.2311 49.054 51.6279 46.3493ZM37.428 43.0918C36.6615 44.4922 35.452 45.7263 34.4304 46.6861C33.8812 47.2023 33.3044 47.6849 32.7035 48.1315C32.7023 48.1321 32.7011 48.1333 32.6999 48.1339C31.994 48.6537 31.0264 48.6537 30.3206 48.1339C30.3194 48.1327 30.3182 48.1321 30.317 48.1315C29.7161 47.6855 29.1393 47.2023 28.5901 46.6861C27.5685 45.7263 26.359 44.4922 25.5925 43.0918C24.9592 41.9352 24.6285 40.6645 24.9562 39.3403C25.2701 38.0714 26.2719 36.9568 27.5 36.8007C28.9202 36.6206 30.5733 37.62 31.5102 38.7677C32.4466 37.62 34.1003 36.6206 35.5204 36.8007C36.7485 36.9562 37.7503 38.0714 38.0643 39.3403C38.392 40.6645 38.0613 41.9352 37.428 43.0918Z" fill="#C97D60"></path>
</svg><style>@media (prefers-color-scheme: light) { :root { filter: none; } }
@media (prefers-color-scheme: dark) { :root { filter: none; } }
</style></svg>