<svg xmlns="http://www.w3.org/2000/svg" version="1.1" xmlns:xlink="http://www.w3.org/1999/xlink" width="32" height="32"><svg width="32" height="32" viewBox="0 0 32 32" fill="none" xmlns="http://www.w3.org/2000/svg">
<rect width="32" height="32" rx="4" fill="#C97D60"></rect>
<path d="M19.5897 4C21.0804 4 22.2888 6.26775 22.2888 8.18891C22.2888 10.1101 21.0804 11.6679 19.5897 11.6679C18.099 11.6679 16.8906 10.1103 16.8906 8.18891C16.8906 6.26747 18.099 4 19.5897 4Z" fill="#F7EAE4"></path>
<path d="M11.9206 4C13.4113 4 14.6197 6.26775 14.6197 8.18891C14.6197 10.1101 13.4113 11.6679 11.9206 11.6679C10.4299 11.6679 9.22158 10.1103 9.22158 8.18891C9.22158 6.26747 10.4299 4 11.9206 4Z" fill="#F7EAE4"></path>
<path d="M3.83728 14.133C3.20429 12.5481 3.48146 10.2682 4.74513 9.76345C6.00881 9.25868 7.78042 10.72 8.41341 12.3049C9.0464 13.8898 8.53529 15.584 7.27161 16.0887C6.00794 16.5935 4.47027 15.7179 3.83728 14.133Z" fill="#F7EAE4"></path>
<path d="M27.673 14.133C27.0401 15.7179 25.5024 16.5935 24.2387 16.0887C22.975 15.584 22.4636 13.8898 23.0969 12.3049C23.7299 10.72 25.5015 9.25868 26.7652 9.76345C28.0289 10.2682 28.306 12.5481 27.673 14.133Z" fill="#F7EAE4"></path>
<path d="M25.4116 22.8877C25.1221 21.5897 24.432 20.4191 23.6688 19.3341C21.8805 16.7923 19.0161 14.2258 15.7552 14.2258C12.5078 14.2258 9.63041 16.7917 7.84151 19.3341C7.078 20.4191 6.38796 21.5894 6.0987 22.8877C5.80914 24.1859 5.9676 25.6374 6.77173 26.6919C7.57586 27.7464 9.09913 28.2728 10.2902 27.7021C10.9984 27.3627 11.5714 26.6784 12.3528 26.6124C13.0699 26.5519 13.7038 27.0351 14.3022 27.439C14.7347 27.7309 15.2559 27.9965 15.7552 28C16.2545 27.9965 16.7757 27.7309 17.2081 27.439C17.8063 27.0351 18.4401 26.5522 19.1575 26.6124C19.9389 26.6781 20.5119 27.3627 21.2201 27.7021C22.4112 28.2728 23.9345 27.7464 24.7386 26.6919C25.5427 25.6374 25.7012 24.1859 25.4116 22.8877ZM18.5957 21.3241C18.2278 21.9962 17.6472 22.5886 17.1568 23.0493C16.8932 23.2971 16.6163 23.5287 16.3279 23.7431C16.3274 23.7434 16.3268 23.744 16.3262 23.7442C15.9874 23.9937 15.5229 23.9937 15.1841 23.7442C15.1835 23.7437 15.183 23.7434 15.1824 23.7431C14.894 23.529 14.6171 23.2971 14.3535 23.0493C13.8631 22.5886 13.2826 21.9962 12.9146 21.3241C12.6107 20.7689 12.4519 20.1589 12.6092 19.5234C12.7599 18.9143 13.2408 18.3792 13.8303 18.3043C14.5119 18.2179 15.3054 18.6976 15.7552 19.2485C16.2046 18.6976 16.9984 18.2179 17.6801 18.3043C18.2695 18.379 18.7504 18.9143 18.9011 19.5234C19.0584 20.1589 18.8997 20.7689 18.5957 21.3241Z" fill="#F7EAE4"></path>
</svg><style>@media (prefers-color-scheme: light) { :root { filter: none; } }
@media (prefers-color-scheme: dark) { :root { filter: none; } }
</style></svg>